# xmcd
#
# Track frame offsets: 
#        150
#        12264
#        25989
#        36888
#        48980
#        61832
#        75027
#        89244
#        100616
#        113925
#        124602
#        136462
#        148951
#        160333
#        172463
#        183475
#        194312
#        208741
#        221388
#        234698
#        247637
#        259867
#        271376
#        283238
#        296165
#
# Disc length: 4196 seconds
#
# Revision: 1
# Processed by: cddbd v1.5.2PL0 Copyright (c) Steve Scherf et al.
# Submitted via: ExactAudioCopy v0.99pb3
#
DISCID=7a106219
DTITLE=T-Bone Walker - The Talkin' Guitar: Stormy Monday Blues
DYEAR=1994
DGENRE=Blues
TTITLE0=Bobby Sox Blues
TTITLE1=Call It Stormy Monday
TTITLE2=Lonesome Woman Blues
TTITLE3=Too Much Trouble Blues
TTITLE4=Hypin' Women Blues
TTITLE5=Vacation Blues
TTITLE6=So Blue Blues
TTITLE7=Strollin' With Bones
TTITLE8=You Don't Love Me
TTITLE9=Travelin' Blues
TTITLE10=Evil Hearted Woman
TTITLE11=Glamour Girl
TTITLE12=The Hustle
TTITLE13=Alimony Blues
TTITLE14=Say! Pretty Baby
TTITLE15=I'm About To Lose My Mind
TTITLE16=Cold Cold Feeling
TTITLE17=Blues Is A Woman
TTITLE18=I Got The Blues
TTITLE19=Blue Mood
TTITLE20=Railroad Station Blues
TTITLE21=Play On Little Girl
TTITLE22=T-Bone Blues Special
TTITLE23=Two Bones And A Pick
TTITLE24=Mean Old World
EXTD=
EXTT0=
EXTT1=
EXTT2=
EXTT3=
EXTT4=
EXTT5=
EXTT6=
EXTT7=
EXTT8=
EXTT9=
EXTT10=
EXTT11=
EXTT12=
EXTT13=
EXTT14=
EXTT15=
EXTT16=
EXTT17=
EXTT18=
EXTT19=
EXTT20=
EXTT21=
EXTT22=
EXTT23=
EXTT24=
PLAYORDER=
